HIERARCHY
ROOT Hips
{
	OFFSET 0.000000 0.000000 0.000000
	CHANNELS 6 Xposition Yposition Zposition Zrotation Yrotation Xrotation 
	JOINT LHipJoint
	{
		OFFSET 0.000000 0.000000 0.000000
		CHANNELS 3 Zrotation Yrotation Xrotation
		JOINT LeftUpLeg
		{
			OFFSET 1.363060 -1.794630 0.839290
			CHANNELS 3 Zrotation Yrotation Xrotation
			JOINT LeftLeg
			{
				OFFSET 2.448110 -6.726130 0.000000
				CHANNELS 3 Zrotation Yrotation Xrotation
				JOINT LeftFoot
				{
					OFFSET 2.562200 -7.039590 0.000000
					CHANNELS 3 Zrotation Yrotation Xrotation
					JOINT LeftToeBase
					{
						OFFSET 0.157640 -0.433110 2.322550
						CHANNELS 3 Zrotation Yrotation Xrotation
						End Site
						{
							OFFSET 0.000000 0.000000 0.000000
						}
					}
				}
			}
		}
	}
	JOINT RHipJoint
	{
		OFFSET 0.000000 0.000000 0.000000
		CHANNELS 3 Zrotation Yrotation Xrotation
		JOINT RightUpLeg
		{
			OFFSET -1.305520 -1.794630 0.839290
			CHANNELS 3 Zrotation Yrotation Xrotation
			JOINT RightLeg
			{
				OFFSET -2.542530 -6.985550 0.000000
				CHANNELS 3 Zrotation Yrotation Xrotation
				JOINT RightFoot
				{
					OFFSET -2.568260 -7.056230 0.000000
					CHANNELS 3 Zrotation Yrotation Xrotation
					JOINT RightToeBase
					{
						OFFSET -0.164730 -0.452590 2.363150
						CHANNELS 3 Zrotation Yrotation Xrotation
						End Site
						{
							OFFSET 0.000000 0.000000 0.000000
						}
					}
				}
			}
		}
	}
}
MOTION
Frames: 27
Frame Time: 0.008333
-19.178207 16.158294 -0.084101 130.847081 85.169356 145.803330 -7.635120 2.109100 8.660598 -15.448176 -14.773707 -49.387446 -3.109110 0.285284 15.660534 -0.018537 1.776276 9.341339 1.328600 -0.000001 -33.095900 10.798922 -5.644182 1.105023 4.516357 -11.251938 12.514640 1.032550 -1.297590 13.343101 0.520841 8.983726 19.032601 3.639000 0.000000 -82.970800
-18.964039 16.199607 -0.072761 129.331765 84.618785 144.079301 -7.470875 2.223129 8.674374 -16.028435 -15.207745 -48.607617 -3.071982 0.369200 16.510313 0.087452 2.329801 8.951014 1.475000 -0.000000 -32.482300 11.109892 -5.622575 1.059315 3.612372 -11.682957 11.492825 0.662403 -1.502651 15.872085 0.323546 9.572030 22.399122 4.495100 -0.000000 -83.575100
-18.755415 16.241848 -0.062832 128.153125 84.066253 142.664143 -7.324557 2.310370 8.673551 -16.584687 -15.622158 -47.716174 -3.045847 0.435318 17.277506 0.188008 2.816438 8.370503 1.581100 -0.000000 -31.845800 11.413802 -5.556102 0.977139 2.693719 -12.263829 10.357520 0.310204 -1.658767 18.577801 0.086364 10.144574 25.706677 5.395700 0.000000 -83.063200
-18.552642 16.284681 -0.054291 127.158465 83.519983 141.403753 -7.194347 2.376010 8.658597 -17.129798 -16.006080 -46.700749 -3.034513 0.482907 17.928091 0.280100 3.228640 7.648960 1.645099 -0.000000 -31.161700 11.706056 -5.441455 0.858391 1.759671 -12.984349 9.132497 -0.005720 -1.765179 21.425811 -0.179514 10.568419 28.819504 6.226100 0.000000 -81.412901
-18.355640 16.327971 -0.047577 126.335455 83.000606 140.291870 -7.085577 2.423700 8.628640 -17.660468 -16.329964 -45.577568 -3.037881 0.513245 18.451280 0.359723 3.549801 6.833432 1.665000 -0.000000 -30.413400 11.972899 -5.284649 0.710224 0.849443 -13.799722 7.835853 -0.270727 -1.830940 24.377659 -0.460241 10.649928 31.592064 6.813000 -0.000000 -78.734000
-18.164442 16.371600 -0.042777 125.637080 82.521871 139.283723 -6.998735 2.458592 8.583295 -18.178189 -16.573002 -44.355984 -3.055482 0.527089 18.832915 0.425419 3.781321 5.974648 1.646700 0.000000 -29.596600 12.207610 -5.094517 0.536807 -0.016502 -14.676912 6.484643 -0.480936 -1.871662 27.400298 -0.742992 10.210809 33.885402 6.980800 0.000000 -75.287400
-17.978573 16.415597 -0.040077 125.058225 82.100332 138.379511 -6.936752 2.484512 8.521568 -18.675119 -16.711416 -43.059192 -3.084524 0.526055 19.074707 0.476136 3.924371 5.113843 1.597300 -0.000000 -28.718600 12.403266 -4.883273 0.346046 -0.804315 -15.569872 5.088165 -0.641470 -1.905046 30.461272 -1.019403 9.108583 35.578006 6.587401 -0.000000 -71.437100
-17.797831 16.459964 -0.039332 124.557256 81.743525 137.540347 -6.898149 2.505328 8.443272 -19.147249 -16.735964 -41.702588 -3.122291 0.511174 19.175876 0.513318 3.995580 4.288015 1.527700 -0.000000 -27.799700 12.559961 -4.660590 0.144009 -1.498720 -16.440677 3.655467 -0.764348 -1.946360 33.530729 -1.285434 7.297053 36.570249 5.583600 0.000000 -67.552499
-17.621673 16.504720 -0.040416 124.117946 81.458714 136.755962 -6.882847 2.523264 8.348905 -19.583145 -16.642294 -40.311028 -3.164763 0.484003 19.147718 0.538864 4.010794 3.520766 1.447100 0.000000 -26.869800 12.678055 -4.435831 -0.060840 -2.078225 -17.246118 2.189542 -0.862862 -2.006809 36.580068 -1.539058 4.836415 36.787392 4.032300 -0.000001 -63.906400
-17.449602 16.549822 -0.043145 123.716347 81.248448 136.008502 -6.889363 2.539756 8.239784 -19.971301 -16.435733 -38.907683 -3.207994 0.446160 19.005638 0.555571 3.989150 2.825131 1.363600 0.000001 -25.963900 12.760539 -4.216417 -0.260605 -2.529504 -17.949138 0.690970 -0.948774 -2.092989 39.581101 -1.777655 1.898261 36.186050 2.109600 -0.000000 -60.618200
-17.281176 16.595200 -0.047182 123.324626 81.111585 135.276115 -6.914857 2.555412 8.118165 -20.301709 -16.131472 -37.512825 -3.248533 0.399295 18.767854 0.566760 3.950515 2.202764 1.283000 0.000000 -25.117400 12.812179 -4.007980 -0.448500 -2.847051 -18.520902 -0.839775 -1.030505 -2.207127 42.504596 -1.997033 -1.269393 34.766632 0.066400 0.000000 -57.666600
-17.115978 16.640683 -0.052351 122.929633 81.045918 134.553814 -6.957295 2.569763 7.987332 -20.562454 -15.750122 -36.148315 -3.283059 0.345267 18.457174 0.575413 3.910419 1.646212 1.208500 -0.000000 -24.362100 12.837340 -3.815339 -0.617442 -3.026277 -18.937762 -2.404491 -1.112256 -2.347272 45.318980 -2.191935 -4.399035 32.583474 -1.834000 0.000001 -54.943799
-16.953729 16.686073 -0.058292 122.511160 81.045242 133.827866 -7.013429 2.581937 7.850602 -20.747220 -15.317483 -34.828408 -3.309537 0.285773 18.094271 0.584275 3.882049 1.142217 1.141300 -0.000000 -23.721700 12.841451 -3.640705 -0.761833 -3.071322 -19.185175 -4.001642 -1.194326 -2.507817 47.991540 -2.357088 -7.254803 29.744664 -3.375200 -0.000000 -52.317400
-16.793977 16.731056 -0.064752 122.058182 81.102987 133.093547 -7.080657 2.590739 7.711067 -20.852637 -14.858632 -33.563132 -3.326707 0.222407 17.698835 0.595279 3.872905 0.674078 1.080999 -0.000000 -23.209399 12.829081 -3.484563 -0.876688 -2.990539 -19.254998 -5.627703 -1.273540 -2.680707 50.491818 -2.487805 -9.667751 26.400070 -4.427500 -0.000000 -49.670800
-16.636458 16.775357 -0.071574 121.577885 81.212944 132.365007 -7.157837 2.594862 7.572000 -20.876304 -14.394887 -32.364893 -3.333784 0.157026 17.293428 0.609078 3.881939 0.223568 1.025400 -0.000000 -22.827100 12.802889 -3.346627 -0.957779 -2.790801 -19.147733 -7.283148 -1.344285 -2.857382 52.797617 -2.579499 -11.541183 22.713289 -4.954300 0.000000 -46.829900
-16.481331 16.818512 -0.078021 121.007414 81.358471 131.570570 -7.237514 2.594477 7.431154 -20.840228 -13.944941 -31.202505 -3.333791 0.089529 16.868745 0.626741 3.916193 -0.215691 0.974400 0.000000 -22.566500 12.770563 -3.219226 -1.006989 -2.512801 -18.872334 -8.937115 -1.401678 -3.028339 54.877034 -2.632406 -12.857889 18.904376 -5.014501 0.000000 -44.164499
-16.328205 16.860261 -0.084315 120.397955 81.538099 130.771244 -7.322280 2.589037 7.291959 -20.741601 -13.514931 -30.097874 -3.326138 0.022308 16.453182 0.646373 3.958443 -0.659354 0.923400 -0.000000 -22.408600 12.730124 -3.102889 -1.022324 -2.157341 -18.447568 -10.601696 -1.439869 -3.188463 56.729477 -2.641620 -13.622648 15.098660 -4.697600 -0.000000 -41.319901
-16.177207 16.900133 -0.089933 119.708827 81.739856 129.913831 -7.407945 2.579951 7.149717 -20.604233 -13.099199 -29.020841 -3.314623 -0.044678 16.035841 0.666219 3.999297 -1.107748 0.870700 -0.000000 -22.331001 12.685702 -2.991189 -1.006753 -1.757813 -17.890130 -12.249132 -1.457302 -3.332158 58.337462 -2.610544 -13.901090 11.479695 -4.142700 0.000000 -38.751900
-16.028156 16.937842 -0.094838 118.955501 81.956984 129.013515 -7.493737 2.568561 7.004476 -20.440078 -12.693964 -27.970859 -3.300926 -0.110270 15.623413 0.684235 4.025650 -1.560939 0.814800 0.000000 -22.304500 12.637713 -2.881106 -0.963727 -1.331614 -17.230429 -13.878443 -1.453054 -3.457472 59.702297 -2.539910 -13.753524 8.139407 -3.466700 0.000000 -36.416901
-15.881021 16.973108 -0.098854 118.130639 82.182746 128.054295 -7.578248 2.556796 6.852221 -20.266459 -12.282751 -26.932241 -3.287833 -0.174152 15.209968 0.697863 4.023384 -2.013711 0.754800 0.000000 -22.302300 12.587479 -2.769024 -0.897613 -0.899039 -16.492580 -15.475328 -1.428978 -3.563309 60.822480 -2.435023 -13.262253 5.155112 -2.773000 0.000000 -34.475800
-15.735666 17.005720 -0.101933 117.235421 82.411687 127.032205 -7.660591 2.546568 6.691013 -20.096559 -11.851146 -25.898376 -3.277421 -0.235970 14.792114 0.705054 3.981321 -2.459223 0.690801 0.000000 -22.299600 12.535567 -2.652290 -0.812041 -0.474131 -15.699614 -17.033909 -1.387674 -3.649670 61.702289 -2.302910 -12.511570 2.553932 -2.131400 0.000000 -32.960600
-15.591931 17.035566 -0.104119 116.272986 82.639847 125.945878 -7.740282 2.539565 6.519263 -19.939429 -11.384523 -24.865256 -3.271220 -0.295569 14.366028 0.704221 3.890998 -2.890098 0.623800 0.000000 -22.276800 12.482174 -2.528870 -0.710303 -0.066932 -14.870820 -18.549266 -1.331877 -3.717072 62.348152 -2.152710 -11.588246 0.323988 -1.579500 -0.000000 -31.826200
-15.449588 17.062596 -0.105509 115.247190 82.864887 124.796117 -7.817046 2.536871 6.336066 -19.799891 -10.871991 -23.831984 -3.270002 -0.352884 13.929353 0.694675 3.748632 -3.300762 0.555400 0.000000 -22.220700 12.427041 -2.397211 -0.594977 0.316588 -14.019054 -20.017138 -1.263975 -3.766152 62.767001 -1.995082 -10.578603 -1.574387 -1.129900 0.000000 -30.973599
-15.308255 17.086874 -0.106267 114.165694 83.085070 123.592215 -7.890699 2.539222 6.143690 -19.678246 -10.310634 -22.805973 -3.273927 -0.408032 13.482533 0.676532 3.554294 -3.688017 0.487099 0.000000 -22.124501 12.369381 -2.256498 -0.466367 0.674402 -13.152117 -21.439564 -1.185851 -3.797276 62.967084 -1.841382 -9.565515 -3.196970 -0.777900 0.000000 -30.283600
-15.167580 17.108496 -0.106673 113.038050 83.300210 122.345082 -7.961545 2.546400 5.944018 -19.570715 -9.701777 -21.792452 -3.282399 -0.461254 13.026119 0.650712 3.312428 -4.051255 0.420700 0.000000 -21.988200 12.307875 -2.106380 -0.324878 1.005499 -12.272511 -22.814515 -1.098958 -3.810753 62.953666 -1.702476 -8.623531 -4.602001 -0.510201 -0.000000 -29.652500
-15.027202 17.127652 -0.106993 111.871470 83.510818 121.065415 -8.029793 2.557732 5.740573 -19.470957 -9.054051 -20.799013 -3.294388 -0.512873 12.562572 0.618762 3.030712 -4.392822 0.357300 -0.000000 -21.817300 12.241012 -1.947074 -0.169738 1.310434 -11.379296 -24.142330 -1.004561 -3.806681 62.730815 -1.587765 -7.814219 -5.841556 -0.309500 -0.000000 -29.007000
-14.886622 17.144563 -0.107502 110.671827 83.718546 119.765602 -8.095727 2.572026 5.537713 -19.370840 -8.381878 -19.834867 -3.308567 -0.563425 12.094695 0.582648 2.719047 -4.717519 0.298000 0.000000 -21.621800 12.167056 -1.779346 0.000585 1.590789 -10.468290 -25.425410 -0.903996 -3.785041 62.300985 -1.504483 -7.182512 -6.954006 -0.158500 -0.000001 -28.309600
